  <svg width="441.75" height="104.25" viewBox="0 0 2356 556" fill="none" xmlns="http://www.w3.org/2000/svg" xmlns:xlink="http://www.w3.org/1999/xlink" version="1.1">
    
        <g transform="translate(0, 0)">
          <animateTransform attributeName="transform" type="translate" values="0,0; 0,-15; 0,0" dur="4s" repeatCount="indefinite" additive="sum" begin="0.0s"/>
          <svg xmlns="http://www.w3.org/2000/svg" width="256" height="256" fill="none" viewBox="0 0 256 256"><rect width="256" height="256" fill="#242938" rx="60"/><path fill="#fff" d="M101.634 182.619C101.634 182.619 93.9548 187.293 106.979 188.63C122.707 190.634 131.023 190.299 148.386 186.962C148.386 186.962 153.06 189.971 159.406 192.306C120.331 209.002 70.9089 191.304 101.634 182.619ZM96.6252 160.914C96.6252 160.914 88.2753 167.26 101.299 168.593C118.327 170.262 131.69 170.597 154.732 165.926C154.732 165.926 157.741 169.267 162.747 170.936C115.664 184.961 62.8975 172.269 96.6252 160.917V160.914ZM188.795 198.984C188.795 198.984 194.471 203.658 182.449 207.334C160.073 214.012 88.6104 216.019 68.5735 207.334C61.564 204.325 74.9197 199.982 79.2587 199.319C83.6012 198.317 85.9366 198.317 85.9366 198.317C78.2569 192.973 34.8424 209.337 63.8959 214.046C143.709 227.073 209.499 208.37 188.792 199.018L188.795 198.984ZM105.307 138.203C105.307 138.203 68.9052 146.888 92.2793 149.89C102.298 151.223 122 150.892 140.368 149.555C155.396 148.221 170.458 145.548 170.458 145.548C170.458 145.548 165.113 147.886 161.441 150.222C124.342 159.915 53.2107 155.573 73.5827 145.554C90.9526 137.204 105.307 138.203 105.307 138.203V138.203ZM170.423 174.604C207.83 155.234 190.46 136.534 178.438 138.873C175.429 139.54 174.096 140.207 174.096 140.207C174.096 140.207 175.097 138.203 177.436 137.54C201.145 129.19 219.849 162.586 169.757 175.61C169.757 175.61 170.092 175.275 170.423 174.608V174.604ZM108.979 227.364C145.046 229.703 200.147 226.03 201.484 208.995C201.484 208.995 198.817 215.673 171.764 220.683C141.042 226.359 102.968 225.692 80.5957 222.016C80.5957 222.016 85.2698 226.023 108.982 227.36L108.979 227.364Z"/><path fill="#F58219" d="M147.685 28C147.685 28 168.389 49.0388 127.983 80.7594C95.5891 106.472 120.632 121.168 127.983 137.861C108.948 120.833 95.2609 105.802 104.606 91.7762C118.331 71.0828 156.062 61.0644 147.685 28ZM137 123.842C146.683 134.862 134.333 144.881 134.333 144.881C134.333 144.881 159.044 132.195 147.692 116.494C137.338 101.466 129.324 94.1184 172.738 69.0689C172.738 69.0689 104.278 86.0968 137.007 123.835L137 123.842Z"/></svg>
        </g>
         
        <g transform="translate(300, 0)">
          <animateTransform attributeName="transform" type="translate" values="0,0; 0,-15; 0,0" dur="4s" repeatCount="indefinite" additive="sum" begin="0.2s"/>
          <svg xmlns="http://www.w3.org/2000/svg" width="256" height="256" fill="none" viewBox="0 0 256 256"><rect width="256" height="256" fill="#242938" rx="60"/><path fill="#5FB832" d="M209.545 171.821C184.93 204.618 132.347 193.547 98.6353 195.139C98.6353 195.139 92.6673 195.471 86.6563 196.461C86.6563 196.461 88.9292 195.491 91.8279 194.492C115.506 186.304 126.695 184.659 141.082 177.269C168.114 163.421 195.018 133.259 200.492 101.925C190.202 132.061 158.909 157.998 130.415 168.53C110.911 175.727 75.6419 182.731 75.6368 182.734C75.6533 182.759 74.2312 181.996 74.2113 181.979C50.2253 170.309 49.5332 118.359 93.0965 101.613C112.197 94.2661 130.466 98.3015 151.114 93.387C173.136 88.151 198.642 71.644 209.009 50.063C220.631 84.5351 234.592 138.467 209.545 171.821V171.821ZM209.973 39.3809C207.043 46.343 203.466 52.6167 199.344 58.2281C181.197 39.6038 155.868 27.9999 127.871 27.9999C72.7989 27.9999 28 72.8039 28 127.866C28 156.731 40.3209 182.764 59.9644 201.012L62.1514 202.949C58.4993 199.971 57.9377 194.608 60.8977 190.952C63.8759 187.295 69.2444 186.728 72.8983 189.69C76.562 192.658 77.1202 198.035 74.1538 201.697C71.1984 205.361 65.8202 205.914 62.1614 202.958L63.6497 204.276C81.0254 218.906 103.424 227.743 127.871 227.743C180.511 227.743 223.736 186.778 227.436 135.073C230.176 109.757 222.699 77.6106 209.973 39.3809Z"/></svg>
        </g>
         
        <g transform="translate(600, 0)">
          <animateTransform attributeName="transform" type="translate" values="0,0; 0,-15; 0,0" dur="4s" repeatCount="indefinite" additive="sum" begin="0.4s"/>
          <svg width="256" height="256" viewBox="0 0 256 256" fill="none" xmlns="http://www.w3.org/2000/svg">
<rect width="256" height="256" rx="60" fill="#A9CBD4"/>
<g clip-path="url(#clip0_702_141)">
<path d="M162.998 138.677C155.218 138.677 148.244 142.124 143.468 147.55L131.23 138.886C132.529 135.31 133.275 131.469 133.275 127.449C133.275 123.499 132.555 119.722 131.299 116.199L143.509 107.627C148.285 113.025 155.241 116.453 162.998 116.453C177.356 116.453 189.04 104.772 189.04 90.4111C189.04 76.0505 177.356 64.3689 162.998 64.3689C148.639 64.3689 136.956 76.0505 136.956 90.4111C136.956 92.9814 137.344 95.46 138.041 97.8074L125.822 106.384C120.718 100.051 113.368 95.6302 104.995 94.2806V79.5542C116.791 77.0766 125.68 66.5956 125.68 54.072C125.68 39.7114 113.996 28.0298 99.6375 28.0298C85.2788 28.0298 73.5953 39.7114 73.5953 54.072C73.5953 66.4279 82.2533 76.7796 93.8138 79.4341V94.3517C78.0368 97.1211 66 110.89 66 127.449C66 144.089 78.156 157.908 94.0469 160.583V176.335C82.3682 178.902 73.5953 189.317 73.5953 201.757C73.5953 216.118 85.2788 227.8 99.6375 227.8C113.996 227.8 125.68 216.118 125.68 201.757C125.68 189.317 116.907 178.902 105.228 176.335V160.583C113.271 159.228 120.548 154.996 125.703 148.675L138.023 157.395C137.339 159.721 136.956 162.175 136.956 164.72C136.956 179.08 148.639 190.762 162.998 190.762C177.356 190.762 189.04 179.08 189.04 164.72C189.04 150.359 177.356 138.677 162.998 138.677ZM162.998 77.7846C169.961 77.7846 175.624 83.4502 175.624 90.4111C175.624 97.372 169.961 103.037 162.998 103.037C156.035 103.037 150.372 97.372 150.372 90.4111C150.372 83.4502 156.035 77.7846 162.998 77.7846ZM87.011 54.072C87.011 47.1111 92.6747 41.446 99.6375 41.446C106.6 41.446 112.264 47.1111 112.264 54.072C112.264 61.0329 106.6 66.698 99.6375 66.698C92.6747 66.698 87.011 61.0329 87.011 54.072ZM112.264 201.757C112.264 208.718 106.6 214.383 99.6375 214.383C92.6747 214.383 87.011 208.718 87.011 201.757C87.011 194.797 92.6747 189.131 99.6375 189.131C106.6 189.131 112.264 194.797 112.264 201.757ZM99.6365 145.058C89.9255 145.058 82.0255 137.16 82.0255 127.449C82.0255 117.738 89.9255 109.838 99.6365 109.838C109.347 109.838 117.247 117.738 117.247 127.449C117.247 137.16 109.347 145.058 99.6365 145.058ZM162.998 177.346C156.035 177.346 150.372 171.68 150.372 164.72C150.372 157.759 156.035 152.094 162.998 152.094C169.961 152.094 175.624 157.759 175.624 164.72C175.624 171.68 169.961 177.346 162.998 177.346Z" fill="black"/>
</g>
<defs>
<clipPath id="clip0_702_141">
<rect width="123.04" height="200" fill="white" transform="translate(66 28)"/>
</clipPath>
</defs>
</svg>

        </g>
         
        <g transform="translate(900, 0)">
          <animateTransform attributeName="transform" type="translate" values="0,0; 0,-15; 0,0" dur="4s" repeatCount="indefinite" additive="sum" begin="0.6s"/>
          <svg xmlns="http://www.w3.org/2000/svg" width="256" height="256" fill="none" viewBox="0 0 256 256"><rect width="256" height="256" fill="#242938" rx="60"/><path fill="#00D8FF" d="M128.001 146.951C138.305 146.951 146.657 138.598 146.657 128.295C146.657 117.992 138.305 109.639 128.001 109.639C117.698 109.639 109.345 117.992 109.345 128.295C109.345 138.598 117.698 146.951 128.001 146.951Z"/><path fill-rule="evenodd" stroke="#00D8FF" stroke-width="8.911" d="M128.002 90.3633C153.05 90.3633 176.319 93.9575 193.864 99.9976C215.003 107.275 228 118.306 228 128.295C228 138.704 214.226 150.423 191.525 157.944C174.363 163.63 151.779 166.598 128.002 166.598C103.624 166.598 80.5389 163.812 63.1834 157.881C41.2255 150.376 28 138.506 28 128.295C28 118.387 40.4096 107.441 61.2515 100.175C78.8617 94.0353 102.705 90.3633 127.998 90.3633H128.002Z" clip-rule="evenodd"/><path fill-rule="evenodd" stroke="#00D8FF" stroke-width="8.911" d="M94.9811 109.438C107.495 87.7402 122.232 69.3783 136.23 57.1971C153.094 42.5206 169.144 36.7728 177.796 41.7623C186.813 46.9623 190.084 64.7496 185.259 88.1712C181.614 105.879 172.9 126.925 161.021 147.523C148.842 168.641 134.897 187.247 121.09 199.315C103.619 214.587 86.7284 220.114 77.8833 215.013C69.3003 210.067 66.0181 193.846 70.1356 172.161C73.6145 153.838 82.3451 131.349 94.977 109.438L94.9811 109.438Z" clip-rule="evenodd"/><path fill-rule="evenodd" stroke="#00D8FF" stroke-width="8.911" d="M95.0123 147.578C82.4633 125.904 73.9194 103.962 70.3531 85.7517C66.0602 63.8109 69.0954 47.0355 77.7401 42.0315C86.7485 36.8163 103.792 42.866 121.674 58.7437C135.194 70.7479 149.077 88.8052 160.99 109.383C173.204 130.481 182.358 151.856 185.919 169.844C190.425 192.608 186.778 210.001 177.941 215.116C169.367 220.08 153.676 214.825 136.945 200.427C122.809 188.263 107.685 169.468 95.0123 147.578Z" clip-rule="evenodd"/></svg>
        </g>
         
        <g transform="translate(1200, 0)">
          <animateTransform attributeName="transform" type="translate" values="0,0; 0,-15; 0,0" dur="4s" repeatCount="indefinite" additive="sum" begin="0.8s"/>
          <svg xmlns="http://www.w3.org/2000/svg" width="256" height="256" fill="none" viewBox="0 0 256 256"><rect width="256" height="256" fill="#007ACC" rx="60"/><path fill="#fff" d="M56.6112 128.849L56.5299 139.333H73.1902H89.8505L89.8505 186.673V234.012H101.635H113.419V186.673L113.419 139.333H130.079H146.739V129.052C146.739 123.363 146.618 118.609 146.455 118.487C146.333 118.325 126.056 118.243 101.472 118.284L56.7331 118.406L56.6112 128.849Z"/><path fill="#fff" d="M206.567 118.108C213.068 119.734 218.026 122.619 222.577 127.332C224.934 129.852 228.428 134.444 228.713 135.541C228.794 135.866 217.66 143.343 210.915 147.528C210.671 147.691 209.695 146.634 208.598 145.009C205.307 140.214 201.853 138.141 196.57 137.776C188.809 137.247 183.811 141.311 183.852 148.097C183.852 150.088 184.136 151.266 184.949 152.892C186.655 156.427 189.825 158.54 199.781 162.847C218.107 170.731 225.949 175.932 230.826 183.327C236.271 191.576 237.49 204.742 233.792 214.535C229.729 225.181 219.651 232.414 205.469 234.812C201.081 235.584 190.678 235.462 185.965 234.609C175.684 232.78 165.932 227.701 159.918 221.037C157.561 218.436 152.969 211.65 153.254 211.162C153.375 211 154.432 210.35 155.61 209.659C156.748 209.009 161.056 206.53 165.119 204.173L172.474 199.906L174.018 202.182C176.172 205.473 180.885 209.984 183.73 211.487C191.897 215.795 203.113 215.185 208.639 210.228C210.996 208.074 211.971 205.839 211.971 202.548C211.971 199.581 211.605 198.281 210.061 196.046C208.07 193.202 204.007 190.804 192.466 185.806C179.26 180.117 173.571 176.582 168.37 170.974C165.363 167.724 162.518 162.522 161.34 158.174C160.365 154.558 160.121 145.496 160.893 141.839C163.615 129.08 173.246 120.181 187.143 117.539C191.654 116.686 202.137 117.011 206.567 118.108Z"/></svg>
        </g>
         
        <g transform="translate(1500, 0)">
          <animateTransform attributeName="transform" type="translate" values="0,0; 0,-15; 0,0" dur="4s" repeatCount="indefinite" additive="sum" begin="1.0s"/>
          <svg xmlns="http://www.w3.org/2000/svg" width="256" height="256" fill="none" viewBox="0 0 256 256"><rect width="256" height="256" fill="#242938" rx="60"/><path fill="#fff" d="M121.451 28.0537C121.021 28.0928 119.652 28.2297 118.42 28.3274C90.0137 30.8885 63.4057 46.216 46.5533 69.7742C37.1691 82.8729 31.1672 97.7312 28.8993 113.469C28.0978 118.963 28 120.586 28 128.034C28 135.483 28.0978 137.106 28.8993 142.599C34.3343 180.155 61.0596 211.71 97.306 223.401C103.797 225.493 110.639 226.92 118.42 227.78C121.451 228.112 134.549 228.112 137.58 227.78C151.011 226.294 162.389 222.971 173.611 217.242C175.331 216.363 175.664 216.128 175.429 215.933C175.273 215.815 167.941 205.981 159.144 194.095L143.152 172.492L123.112 142.834C112.086 126.529 103.015 113.195 102.936 113.195C102.858 113.176 102.78 126.353 102.741 142.443C102.682 170.615 102.663 171.749 102.311 172.413C101.803 173.371 101.412 173.762 100.59 174.193C99.9648 174.505 99.4174 174.564 96.4653 174.564H93.0831L92.1838 173.997C91.5973 173.626 91.1672 173.137 90.8739 172.57L90.4633 171.69L90.5024 132.492L90.5611 93.2737L91.1672 92.5112C91.48 92.1007 92.1447 91.5728 92.6139 91.3186C93.4154 90.9276 93.7283 90.8885 97.1105 90.8885C101.099 90.8885 101.763 91.0449 102.8 92.1789C103.093 92.4917 113.943 108.836 126.925 128.523C139.906 148.21 157.658 175.092 166.377 188.288L182.213 212.277L183.015 211.749C190.111 207.135 197.619 200.566 203.562 193.723C216.211 179.197 224.364 161.485 227.101 142.599C227.902 137.106 228 135.483 228 128.034C228 120.586 227.902 118.963 227.101 113.469C221.666 75.913 194.94 44.3587 158.694 32.6676C152.301 30.5953 145.498 29.1681 137.873 28.3079C135.996 28.1124 123.073 27.8973 121.451 28.0537ZM162.389 88.5425C163.327 89.0117 164.09 89.911 164.364 90.8494C164.52 91.3577 164.559 102.228 164.52 126.724L164.461 161.876L158.264 152.374L152.047 142.873V117.321C152.047 100.801 152.125 91.5141 152.242 91.0645C152.555 89.9697 153.239 89.1095 154.178 88.6011C154.979 88.1906 155.273 88.1515 158.342 88.1515C161.236 88.1515 161.744 88.1906 162.389 88.5425Z"/></svg>
        </g>
         
        <g transform="translate(1800, 0)">
          <animateTransform attributeName="transform" type="translate" values="0,0; 0,-15; 0,0" dur="4s" repeatCount="indefinite" additive="sum" begin="1.2s"/>
          <svg xmlns="http://www.w3.org/2000/svg" width="256" height="256" fill="none" viewBox="0 0 256 256"><rect width="256" height="256" fill="#2396ED" rx="60"/><path fill="#fff" d="M141.187 122.123H161.904V103.379H141.187V122.123ZM116.525 122.123H137.241V103.379H116.525V122.123ZM92.3554 122.123H113.072V103.379H92.3554V122.123ZM68.1859 122.123H88.4093V103.379H68.1859V122.123ZM43.5233 122.123H64.2399V103.379H43.5233V122.123ZM68.1859 99.4333H88.4093V80.6896H68.1859V99.4333ZM92.3554 99.4333H113.072V80.6896H92.3554V99.4333ZM116.525 99.4333H137.241V80.6896H116.525V99.4333ZM116.525 76.7436H137.241V58H116.525V76.7436ZM228 113.738C228 113.738 219.121 105.352 200.871 108.312C198.898 94.0075 183.607 85.6222 183.607 85.6222C183.607 85.6222 169.303 102.886 179.661 122.123C176.702 123.603 171.769 125.576 164.37 125.576H28.7257C26.2594 134.948 26.2594 197.097 94.3284 197.097C143.16 197.097 179.661 174.408 196.925 132.974C222.574 134.948 228 113.738 228 113.738Z"/></svg>
        </g>
         
        <g transform="translate(2100, 0)">
          <animateTransform attributeName="transform" type="translate" values="0,0; 0,-15; 0,0" dur="4s" repeatCount="indefinite" additive="sum" begin="1.4s"/>
          <svg xmlns="http://www.w3.org/2000/svg" width="256" height="256" fill="none" viewBox="0 0 256 256"><rect width="256" height="256" fill="#326CE5" rx="60"/><path fill="#fff" stroke="#fff" stroke-width=".11" d="M128.073 30C124.796 30.2304 122.313 33.0377 122.484 36.3143V37.9185C122.637 39.736 122.91 41.5364 123.269 43.3198C123.792 46.7349 123.98 50.1928 123.832 53.6446C123.507 54.7794 122.859 55.8034 121.972 56.5884L121.844 58.9947C118.388 59.2848 114.958 59.8138 111.579 60.5818C97.3628 63.7901 84.4184 71.1625 74.4264 81.7859L72.3785 80.3353C71.2522 80.6767 70.0405 80.5487 69.0081 79.994C66.2384 77.9441 63.675 75.6293 61.3541 73.0824C60.1883 71.6894 58.9432 70.3646 57.6252 69.1146L56.3624 68.1078C55.236 67.2033 53.8537 66.6828 52.4117 66.6145C51.5511 66.5689 50.6919 66.7275 49.9045 67.0775C49.117 67.4275 48.4235 67.9589 47.8807 68.6283C45.9523 71.3332 46.5837 75.0791 49.2801 77.0161L50.4576 77.9547C51.9734 78.9632 53.546 79.8834 55.1678 80.7108C58.1884 82.3918 61.0384 84.3629 63.6836 86.6838C64.3602 87.6487 64.7533 88.7837 64.8184 89.9604L66.6786 91.667C56.6354 106.736 52.514 124.988 55.091 142.915L52.7018 143.598C52.0789 144.588 51.2512 145.433 50.2614 146.055C46.928 146.946 43.5158 147.509 40.0731 147.736C38.2461 147.774 36.4227 147.916 34.6121 148.163L33.1018 148.504H32.9311C31.883 148.65 30.8958 149.083 30.0795 149.757C29.2632 150.43 28.6497 151.316 28.3074 152.318C27.9651 153.319 27.9074 154.396 28.1407 155.428C28.374 156.46 28.8892 157.407 29.6289 158.164C30.3755 158.916 31.3168 159.447 32.3475 159.695C33.3781 159.944 34.4577 159.901 35.4654 159.571H35.5763L37.1122 159.401C38.8444 158.889 40.551 158.257 42.2149 157.541C45.4147 156.261 48.734 155.279 52.1301 154.64C53.3076 154.708 54.4339 155.109 55.3896 155.791L57.9495 155.365C63.4958 172.576 75.1517 187.158 90.7157 196.348L89.6746 198.524C90.1525 199.522 90.3317 200.632 90.1866 201.732C88.7787 204.992 87.0551 208.115 85.0413 211.05C83.9366 212.506 82.9167 214.025 81.9865 215.598L81.2612 217.134C80.735 218.047 80.4713 219.088 80.4992 220.141C80.5271 221.194 80.8456 222.219 81.4194 223.103C81.9932 223.987 82.8001 224.695 83.751 225.149C84.7018 225.603 85.7596 225.785 86.8076 225.676C87.858 225.557 88.8551 225.15 89.6881 224.5C90.5211 223.849 91.1574 222.98 91.5263 221.989L92.2345 220.539C92.883 218.832 93.4291 217.091 93.8728 215.334C95.3831 211.605 96.2023 207.603 98.2672 205.128C98.9421 204.494 99.7926 204.078 100.708 203.934L101.988 201.604C118.859 208.089 137.528 208.135 154.431 201.732L155.565 203.908C156.726 204.079 157.767 204.719 158.467 205.657C160.071 208.712 161.368 211.912 162.358 215.214C162.809 216.982 163.362 218.723 164.013 220.428L164.721 221.878C165.094 222.865 165.732 223.73 166.565 224.376C167.398 225.023 168.394 225.426 169.443 225.542C170.491 225.658 171.551 225.481 172.505 225.032C173.46 224.583 174.271 223.878 174.85 222.996C175.423 222.109 175.739 221.081 175.763 220.025C175.787 218.969 175.518 217.927 174.986 217.015L174.244 215.479C173.314 213.911 172.294 212.398 171.189 210.948C169.227 208.115 167.537 205.094 166.069 201.929C165.932 201.35 165.913 200.749 166.013 200.163C166.113 199.577 166.329 199.016 166.65 198.515C166.286 197.771 165.969 197.005 165.702 196.22C181.232 186.962 192.837 172.328 198.324 155.092L200.747 155.518C201.617 154.725 202.761 154.307 203.93 154.341C207.317 154.989 210.636 156.047 213.845 157.242C215.509 158.01 217.215 158.658 218.947 159.205C219.357 159.316 219.954 159.409 220.415 159.52H220.526C221.533 159.846 222.611 159.885 223.639 159.634C224.667 159.383 225.605 158.851 226.349 158.099C227.093 157.346 227.614 156.401 227.853 155.37C228.091 154.339 228.039 153.262 227.702 152.259C227.357 151.257 226.741 150.37 225.921 149.698C225.101 149.026 224.111 148.595 223.06 148.453L221.405 148.061C219.594 147.814 217.771 147.671 215.944 147.634C212.497 147.412 209.084 146.849 205.756 145.953C204.732 145.381 203.878 144.528 203.298 143.496L200.994 142.813C203.451 124.894 199.242 106.697 189.168 91.6755L191.182 89.8154C191.096 88.6464 191.48 87.4859 192.24 86.5899C194.859 84.3373 197.701 82.3491 200.687 80.6511C202.309 79.8233 203.881 78.9031 205.397 77.8949L206.643 76.8881C207.56 76.3188 208.298 75.5014 208.77 74.5305C209.242 73.5596 209.429 72.4749 209.311 71.4019C209.192 70.3289 208.772 69.3114 208.099 68.4672C207.426 67.623 206.528 66.9866 205.508 66.6316C204.49 66.277 203.391 66.2178 202.34 66.4609C201.29 66.704 200.329 67.2394 199.569 68.0054L198.307 69.0122C196.989 70.2625 195.744 71.5873 194.578 72.98C192.325 75.5569 189.833 77.9035 187.128 80.0026C186.037 80.447 184.843 80.577 183.681 80.378L181.522 81.9139C169.064 68.8587 152.28 60.7524 134.293 59.1312C134.293 58.2779 134.182 56.998 134.165 56.5969C133.201 55.9314 132.527 54.916 132.305 53.764C132.186 50.3181 132.404 46.8688 132.953 43.4649C133.32 41.673 133.576 39.8811 133.738 38.0636V36.357C133.909 33.0804 131.434 30.2731 128.149 30.0427L128.073 30ZM120.956 74.0808L119.25 103.886H119.122C119.036 105.729 117.953 107.299 116.289 108.187C114.625 109.074 112.654 108.81 111.169 107.726L86.7223 90.4041C94.5034 82.7615 104.265 77.4447 114.906 75.0535C116.903 74.6269 118.917 74.3026 120.939 74.0808H120.956ZM135.189 74.0808C148.031 75.6764 159.985 81.4446 169.235 90.498L145.019 107.709C143.526 108.903 141.478 109.142 139.745 108.323C138.013 107.504 136.904 105.763 136.878 103.852L135.189 74.0808ZM77.8481 101.616L100.204 121.566V121.694C101.595 122.906 102.201 124.792 101.791 126.592C101.382 128.392 99.9994 129.817 98.2331 130.304V130.389L69.5456 138.64C68.1261 125.716 71.0502 112.686 77.8566 101.608L77.8481 101.616ZM178.135 101.616C184.927 112.666 187.931 125.628 186.685 138.538L157.955 130.261V130.15C156.163 129.664 154.797 128.239 154.396 126.438C153.995 124.638 154.593 122.769 155.984 121.541L178.169 101.685L178.135 101.616ZM123.49 123.119H132.638L138.227 130.218L136.196 139.093L127.979 143.043L119.744 139.093L117.807 130.218L123.49 123.119ZM152.792 147.335C153.176 147.293 153.646 147.293 153.944 147.335L183.528 152.327C179.261 164.614 170.839 175.11 159.849 182.132L148.415 154.452C148.1 153.709 147.969 152.902 148.032 152.098C148.094 151.294 148.349 150.517 148.775 149.832C149.201 149.147 149.785 148.574 150.478 148.162C151.171 147.75 151.953 147.51 152.758 147.463L152.792 147.335ZM103.105 147.463C104.778 147.489 106.322 148.351 107.235 149.75C108.148 151.15 108.293 152.907 107.636 154.443V154.554L96.2706 182.013C85.3912 175.042 77.1313 164.674 72.7369 152.515L102.064 147.54C102.389 147.506 102.721 147.506 103.054 147.54L103.105 147.463ZM127.885 159.409C128.817 159.38 129.739 159.61 130.548 160.074C131.357 160.538 132.022 161.218 132.467 162.037H132.578L147.033 188.122L141.256 189.829C130.624 192.261 119.523 191.689 109.189 188.174L123.695 162.089C124.574 160.553 126.195 159.614 127.962 159.571L127.885 159.409Z"/></svg>
        </g>
         
        <g transform="translate(0, 300)">
          <animateTransform attributeName="transform" type="translate" values="0,0; 0,-15; 0,0" dur="4s" repeatCount="indefinite" additive="sum" begin="0.2s"/>
          <svg xmlns="http://www.w3.org/2000/svg" width="256" height="256" fill="none" viewBox="0 0 256 256"><rect width="256" height="256" fill="#242938" rx="60"/><path fill="#fff" d="M84.7447 111.961C84.7447 114.395 85.0079 116.368 85.4684 117.816C85.9947 119.263 86.6526 120.842 87.5737 122.553C87.9026 123.079 88.0342 123.605 88.0342 124.066C88.0342 124.724 87.6395 125.382 86.7842 126.039L82.6395 128.803C82.0474 129.197 81.4553 129.395 80.929 129.395C80.2711 129.395 79.6132 129.066 78.9553 128.474C78.0342 127.487 77.2447 126.434 76.5869 125.382C75.929 124.263 75.2711 123.013 74.5474 121.5C69.4158 127.553 62.9684 130.579 55.2053 130.579C49.679 130.579 45.2711 129 42.0474 125.842C38.8237 122.684 37.179 118.474 37.179 113.211C37.179 107.618 39.1526 103.079 43.1658 99.6579C47.179 96.2368 52.5079 94.5263 59.2842 94.5263C61.5211 94.5263 63.8237 94.7237 66.2579 95.0526C68.6921 95.3816 71.1921 95.9079 73.8237 96.5V91.6974C73.8237 86.6974 72.7711 83.2105 70.7316 81.1711C68.6263 79.1316 65.0737 78.1447 60.0079 78.1447C57.7053 78.1447 55.3368 78.4079 52.9026 79C50.4684 79.5921 48.1 80.3158 45.7974 81.2368C44.7447 81.6974 43.9553 81.9605 43.4947 82.0921C43.0342 82.2237 42.7053 82.2895 42.4421 82.2895C41.5211 82.2895 41.0605 81.6316 41.0605 80.25V77.0263C41.0605 75.9737 41.1921 75.1842 41.5211 74.7237C41.85 74.2632 42.4421 73.8026 43.3632 73.3421C45.6658 72.1579 48.429 71.1711 51.6526 70.3816C54.8763 69.5263 58.2974 69.1316 61.9158 69.1316C69.7447 69.1316 75.4684 70.9079 79.1526 74.4605C82.7711 78.0132 84.6132 83.4079 84.6132 90.6447V111.961H84.7447ZM58.0342 121.961C60.2053 121.961 62.4421 121.566 64.8105 120.776C67.179 119.987 69.2842 118.539 71.0605 116.566C72.1132 115.316 72.9026 113.934 73.2974 112.355C73.6921 110.776 73.9553 108.868 73.9553 106.632V103.868C72.0474 103.408 70.0079 103.013 67.9026 102.75C65.7974 102.487 63.7579 102.355 61.7184 102.355C57.3105 102.355 54.0868 103.211 51.9158 104.987C49.7447 106.763 48.6921 109.263 48.6921 112.553C48.6921 115.645 49.4816 117.947 51.1263 119.526C52.7053 121.171 55.0079 121.961 58.0342 121.961ZM110.863 129.066C109.679 129.066 108.889 128.868 108.363 128.408C107.837 128.013 107.376 127.092 106.982 125.842L91.5211 74.9868C91.1263 73.6711 90.929 72.8158 90.929 72.3553C90.929 71.3026 91.4553 70.7105 92.5079 70.7105H98.9553C100.205 70.7105 101.061 70.9079 101.521 71.3684C102.047 71.7632 102.442 72.6842 102.837 73.9342L113.889 117.487L124.153 73.9342C124.482 72.6184 124.876 71.7632 125.403 71.3684C125.929 70.9737 126.85 70.7105 128.034 70.7105H133.297C134.547 70.7105 135.403 70.9079 135.929 71.3684C136.455 71.7632 136.916 72.6842 137.179 73.9342L147.574 118.013L158.955 73.9342C159.35 72.6184 159.811 71.7632 160.271 71.3684C160.797 70.9737 161.653 70.7105 162.837 70.7105H168.955C170.008 70.7105 170.6 71.2368 170.6 72.3553C170.6 72.6842 170.534 73.0132 170.468 73.4079C170.403 73.8026 170.271 74.3289 170.008 75.0526L154.153 125.908C153.758 127.224 153.297 128.079 152.771 128.474C152.245 128.868 151.389 129.132 150.271 129.132H144.613C143.363 129.132 142.508 128.934 141.982 128.474C141.455 128.013 140.995 127.158 140.732 125.842L130.534 83.4079L120.403 125.776C120.074 127.092 119.679 127.947 119.153 128.408C118.626 128.868 117.705 129.066 116.521 129.066H110.863ZM195.403 130.842C191.982 130.842 188.561 130.447 185.271 129.658C181.982 128.868 179.416 128.013 177.705 127.026C176.653 126.434 175.929 125.776 175.666 125.184C175.403 124.592 175.271 123.934 175.271 123.342V119.987C175.271 118.605 175.797 117.947 176.784 117.947C177.179 117.947 177.574 118.013 177.968 118.145C178.363 118.276 178.955 118.539 179.613 118.803C181.85 119.789 184.284 120.579 186.85 121.105C189.482 121.632 192.047 121.895 194.679 121.895C198.824 121.895 202.047 121.171 204.284 119.724C206.521 118.276 207.705 116.171 207.705 113.474C207.705 111.632 207.113 110.118 205.929 108.868C204.745 107.618 202.508 106.5 199.284 105.447L189.745 102.487C184.942 100.974 181.389 98.7368 179.218 95.7763C177.047 92.8816 175.929 89.6579 175.929 86.2368C175.929 83.4737 176.521 81.0395 177.705 78.9342C178.889 76.8289 180.468 74.9868 182.442 73.5395C184.416 72.0263 186.653 70.9079 189.284 70.1184C191.916 69.3289 194.679 69 197.574 69C199.021 69 200.534 69.0658 201.982 69.2632C203.495 69.4605 204.876 69.7237 206.258 69.9868C207.574 70.3158 208.824 70.6447 210.008 71.0395C211.192 71.4342 212.113 71.8289 212.771 72.2237C213.692 72.75 214.35 73.2763 214.745 73.8684C215.139 74.3947 215.337 75.1184 215.337 76.0395V79.1316C215.337 80.5132 214.811 81.2368 213.824 81.2368C213.297 81.2368 212.442 80.9737 211.324 80.4474C207.574 78.7368 203.363 77.8816 198.692 77.8816C194.942 77.8816 191.982 78.4737 189.942 79.7237C187.903 80.9737 186.85 82.8816 186.85 85.5789C186.85 87.4211 187.508 89 188.824 90.25C190.139 91.5 192.574 92.75 196.061 93.8684L205.403 96.8289C210.139 98.3421 213.561 100.447 215.6 103.145C217.639 105.842 218.626 108.934 218.626 112.355C218.626 115.184 218.034 117.75 216.916 119.987C215.732 122.224 214.153 124.197 212.113 125.776C210.074 127.421 207.639 128.605 204.811 129.461C201.85 130.382 198.758 130.842 195.403 130.842Z"/><path fill="#F90" fill-rule="evenodd" d="M207.837 162.816C186.192 178.803 154.745 187.29 127.705 187.29C89.8105 187.29 55.6658 173.276 29.8763 149.987C27.8369 148.145 29.679 145.645 32.1132 147.092C60.0079 163.276 94.4158 173.079 130.008 173.079C154.021 173.079 180.403 168.079 204.679 157.816C208.297 156.171 211.389 160.184 207.837 162.816Z" clip-rule="evenodd"/><path fill="#F90" fill-rule="evenodd" d="M216.85 152.553C214.087 149 198.561 150.842 191.521 151.697C189.416 151.961 189.087 150.118 190.995 148.737C203.363 140.053 223.692 142.553 226.061 145.447C228.429 148.408 225.403 168.737 213.824 178.474C212.047 179.987 210.337 179.197 211.126 177.224C213.758 170.711 219.613 156.039 216.85 152.553Z" clip-rule="evenodd"/></svg>
        </g>
         
        <g transform="translate(300, 300)">
          <animateTransform attributeName="transform" type="translate" values="0,0; 0,-15; 0,0" dur="4s" repeatCount="indefinite" additive="sum" begin="0.4s"/>
          <svg xmlns="http://www.w3.org/2000/svg" width="256" height="256" fill="none" viewBox="0 0 256 256"><rect width="256" height="256" fill="#242938" rx="60"/><g clip-path="url(#clip0_7_147)"><path fill="#fff" fill-rule="evenodd" d="M203.801 178.21C194.011 177.938 186.416 178.941 180.051 181.619C178.218 182.355 175.277 182.355 175.035 184.662C176.015 185.63 176.133 187.214 176.992 188.556C178.459 190.991 181.033 194.271 183.357 195.973L191.191 201.571C195.965 204.488 201.351 206.193 206.002 209.113C208.696 210.817 211.388 213.007 214.082 214.834C215.454 215.807 216.285 217.392 218 217.997V217.629C217.144 216.538 216.897 214.957 216.044 213.735L212.367 210.209C208.82 205.465 204.41 201.325 199.636 197.922C195.718 195.245 187.152 191.596 185.56 187.097L185.319 186.824C188.008 186.552 191.191 185.605 193.764 184.875C197.929 183.784 201.721 184.024 206.002 182.93L211.882 181.226V180.135C209.678 177.946 208.087 175.025 205.763 172.959C199.521 167.606 192.661 162.373 185.56 157.994C181.766 155.562 176.868 153.977 172.829 151.913C171.356 151.182 168.911 150.817 168.055 149.601C165.846 146.929 164.625 143.397 163.034 140.232L152.997 119.064C150.794 114.319 149.444 109.574 146.755 105.195C134.144 84.5124 120.431 71.9828 99.375 59.6932C94.8477 57.1382 89.4616 56.0393 83.7353 54.7032L74.5546 54.2124C72.5928 53.3616 70.6364 51.0493 68.9216 49.9531C61.9441 45.5739 43.9475 36.0847 38.8029 48.5897C35.4966 56.4974 43.7006 64.2824 46.4855 68.299C48.5708 71.0966 51.2597 74.2597 52.7332 77.4228C53.5563 79.4897 53.8307 81.682 54.6895 83.8717C56.6458 89.2243 58.4842 95.1878 61.0551 100.178C62.427 102.733 63.8675 105.413 65.5824 107.723C66.5619 109.086 68.2768 109.67 68.6417 111.859C66.9268 114.294 66.8089 117.94 65.8293 120.986C61.42 134.734 63.1349 151.766 69.377 161.888C71.3389 164.928 75.9622 171.622 82.2345 169.065C87.744 166.875 86.5148 159.941 88.1062 153.857C88.4766 152.399 88.2297 151.425 88.9623 150.449V150.722L93.9834 160.819C97.7781 166.78 104.391 172.986 109.897 177.125C112.833 179.315 115.16 183.089 118.831 184.425V184.057H118.59C117.854 182.966 116.751 182.475 115.772 181.624C113.569 179.435 111.121 176.757 109.406 174.325C104.267 167.513 99.7399 159.968 95.6983 152.183C93.7365 148.412 92.0216 144.275 90.4357 140.504C89.6949 139.043 89.6949 136.85 88.4739 136.125C86.6355 138.797 83.9466 141.115 82.5939 144.398C80.2672 149.628 80.0257 156.077 79.1697 162.769C78.6758 162.891 78.8953 162.769 78.6758 163.041C74.7631 162.071 73.4132 158.051 71.9453 154.648C68.274 146.01 67.6594 132.141 70.8422 122.164C71.6983 119.609 75.375 111.579 73.9071 109.146C73.1662 106.834 70.7242 105.498 69.3743 103.671C67.7829 101.359 66.0735 98.4409 64.9705 95.8859C62.0346 89.0689 60.5667 81.5293 57.3812 74.7151C55.9077 71.552 53.3396 68.2662 51.257 65.3486C48.9303 62.0628 46.3648 59.7505 44.5265 55.8593C43.9146 54.4959 43.0585 52.3309 44.0381 50.8693C44.2795 49.8959 44.7734 49.5059 45.7475 49.2878C47.3389 47.9244 51.8716 49.6532 53.463 50.3785C57.9903 52.2054 61.7849 53.907 65.5796 56.4592C67.2945 57.6754 69.1329 59.9877 71.3361 60.5985H73.9098C77.8279 61.4493 82.2317 60.8712 85.9002 61.9619C92.3893 64.0343 98.2637 67.0719 103.532 70.3604C119.567 80.4577 132.792 94.8143 141.725 111.971C143.193 114.769 143.805 117.324 145.155 120.244C147.729 126.208 150.912 132.289 153.477 138.132C156.051 143.85 158.498 149.694 162.17 154.438C164.008 156.993 171.35 158.329 174.654 159.668C177.104 160.759 180.896 161.741 183.105 163.077C187.264 165.632 191.427 168.552 195.342 171.35C197.298 172.806 203.423 175.849 203.787 178.276L203.801 178.21ZM78.9584 72.4873C77.267 72.4724 75.5809 72.6769 73.9427 73.0954V73.3681H74.1842C75.1637 75.315 76.8786 76.6538 78.1023 78.3581L80.9202 84.1989L81.1616 83.9262C82.8765 82.71 83.7353 80.7631 83.7353 77.8454C83 76.9947 82.8793 76.1412 82.2674 75.2904C81.5321 74.0743 79.9407 73.4635 78.9584 72.4928V72.4873Z" clip-rule="evenodd"/></g><defs><clipPath id="clip0_7_147"><rect width="180" height="180" fill="#fff" transform="translate(38 38)"/></clipPath></defs></svg>
        </g>
         
        <g transform="translate(600, 300)">
          <animateTransform attributeName="transform" type="translate" values="0,0; 0,-15; 0,0" dur="4s" repeatCount="indefinite" additive="sum" begin="0.6s"/>
          <svg xmlns="http://www.w3.org/2000/svg" width="256" height="256" fill="none" viewBox="0 0 256 256"><rect width="256" height="256" fill="#242938" rx="60"/><path fill="#336791" d="M203.48 148.688C183.16 152.878 181.684 145.995 181.684 145.995C203.15 114.143 212.129 73.7134 204.38 63.8204C183.259 36.8204 146.689 49.5962 146.077 49.9266L145.88 49.9618C141.414 49.0656 136.873 48.5924 132.317 48.5485C123.12 48.4079 116.145 50.9602 110.844 54.9751C110.844 54.9751 45.6078 28.1016 48.6453 88.7743C49.2922 101.684 67.1375 186.509 88.4422 160.845C96.2891 151.409 103.812 143.484 103.812 143.484C107.539 145.966 112.018 147.232 116.708 146.775L117.073 146.466C116.966 147.681 117.016 148.905 117.221 150.108C111.737 156.239 113.354 157.315 102.385 159.572C91.2898 161.857 97.8148 165.928 102.062 166.997C107.223 168.291 119.162 170.119 127.234 158.827L126.91 160.113C129.062 161.836 130.566 171.314 130.313 179.906C130.06 188.499 129.891 194.391 131.579 199.003C133.266 203.616 134.954 213.98 149.368 210.956C161.413 208.376 167.649 201.675 168.528 190.524C169.147 182.592 170.539 183.759 170.638 176.672L171.763 173.311C173.049 162.553 171.973 159.087 179.391 160.704L181.198 160.866C186.662 161.112 193.813 159.987 198.003 158.039C207.038 153.849 212.396 146.845 203.487 148.688H203.48Z"/><path stroke="#fff" stroke-linecap="round" stroke-linejoin="round" stroke-width="5.034" d="M146.07 48.5961C143.82 49.2993 182.38 34.4985 204.303 62.504C212.038 72.3969 203.073 112.827 181.606 144.678M128.098 153.784C127.536 173.795 128.239 193.946 130.194 198.784C132.148 203.621 136.346 213.198 150.767 210.118C162.812 207.538 167.199 202.538 169.098 191.506L173.548 156.231L128.098 153.784ZM110.816 53.4688C110.816 53.4688 45.5375 26.7782 48.575 87.4508C49.2219 100.36 67.0672 185.185 88.3719 159.521C96.1484 150.148 103.18 142.815 103.18 142.815L110.816 53.4688Z"/><path stroke="#fff" stroke-linecap="round" stroke-linejoin="bevel" stroke-width="5.034" d="M181.613 144.664C181.613 144.664 183.02 151.555 203.41 147.35C212.319 145.508 206.954 152.511 197.926 156.702C190.515 160.147 173.893 161.026 173.619 156.28C172.916 144.01 182.366 147.737 181.684 144.664C181.065 141.894 176.832 139.18 174.048 132.402C171.608 126.495 140.579 81.1438 182.654 87.8727C184.201 87.5563 171.685 47.7946 132.31 47.2181C92.9352 46.6415 94.1797 95.6282 94.1797 95.6282"/><path stroke="#fff" stroke-linejoin="round" stroke-width="5.034" d="M117.08 148.869C111.596 155 113.213 156.076 102.245 158.333C91.1492 160.618 97.6742 164.689 101.921 165.758C107.082 167.052 119.021 168.88 127.093 157.58C129.554 154.135 127.079 148.651 123.704 147.259C122.073 146.584 119.893 145.74 117.095 148.876L117.08 148.869Z"/><path stroke="#fff" stroke-linecap="round" stroke-linejoin="round" stroke-width="5.034" d="M116.722 148.763C116.159 145.156 117.903 140.874 119.766 135.854C122.565 128.331 129.02 120.807 123.859 96.9219C120.013 79.1329 94.1867 93.2165 94.1867 95.6282C94.1867 98.0399 95.3539 107.863 93.7648 119.288C91.6766 134.209 103.257 146.823 116.588 145.536"/><path fill="#fff" stroke="#fff" stroke-width="1.68" d="M110.577 95.2695C110.457 96.0922 112.088 98.293 114.205 98.5883C116.321 98.8836 118.128 97.168 118.248 96.3383C118.367 95.5086 116.736 94.6086 114.62 94.3133C112.503 94.018 110.682 94.4539 110.577 95.2695V95.2695Z"/><path fill="#fff" stroke="#fff" stroke-width=".837" d="M175.011 93.5891C175.123 94.4118 173.499 96.6125 171.383 96.9079C169.266 97.2032 167.445 95.4875 167.34 94.6579C167.234 93.8282 168.852 92.9282 170.968 92.6329C173.084 92.3375 174.905 92.7735 175.011 93.5891Z"/><path stroke="#fff" stroke-linecap="round" stroke-linejoin="round" stroke-width="5.034" d="M182.577 87.8867C182.928 94.3555 181.184 98.75 180.959 105.634C180.636 115.632 185.727 127.079 178.055 138.54"/></svg>
        </g>
         
        <g transform="translate(900, 300)">
          <animateTransform attributeName="transform" type="translate" values="0,0; 0,-15; 0,0" dur="4s" repeatCount="indefinite" additive="sum" begin="0.8s"/>
          <svg xmlns="http://www.w3.org/2000/svg" width="256" height="256" fill="none" viewBox="0 0 256 256"><rect width="256" height="256" fill="#023430" rx="60"/><path fill="#10AA50" d="M171.173 107.591C160.636 61.1097 138.676 48.7357 133.074 39.9886C130.764 36.1353 128.717 32.1299 126.949 28C126.653 32.1292 126.109 34.7307 122.599 37.862C115.552 44.1454 85.6217 68.5354 83.1028 121.348C80.756 170.59 119.303 200.953 124.395 204.092C128.311 206.019 133.08 204.133 135.407 202.364C153.988 189.612 179.376 155.614 171.193 107.591"/><path fill="#B8C4C2" d="M128.545 177.871C127.575 190.059 126.88 197.141 124.416 204.106C124.416 204.106 126.033 215.709 127.169 228H131.188C132.147 219.345 133.61 210.753 135.572 202.268C130.369 199.708 128.745 188.566 128.545 177.871Z"/><path fill="#12924F" d="M135.565 202.275C130.307 199.846 128.786 188.469 128.552 177.871C129.852 160.388 130.231 142.849 129.688 125.326C129.412 116.132 129.818 40.1676 127.423 29.0461C129.062 32.8129 130.949 36.4662 133.074 39.9818C138.676 48.7358 160.643 61.1097 171.173 107.591C179.376 155.532 154.126 189.44 135.565 202.275Z"/></svg>
        </g>
         
        <g transform="translate(1200, 300)">
          <animateTransform attributeName="transform" type="translate" values="0,0; 0,-15; 0,0" dur="4s" repeatCount="indefinite" additive="sum" begin="1.0s"/>
          <svg xmlns="http://www.w3.org/2000/svg" width="256" height="256" fill="none" viewBox="0 0 256 256"><rect width="256" height="256" fill="#242938" rx="60"/><path fill="url(#paint0_linear_2_47)" d="M127.279 29C76.5066 29 79.6772 51.018 79.6772 51.018L79.7338 73.8284H128.185V80.6772H60.4893C60.4893 80.6772 28 76.9926 28 128.222C28 179.452 56.3573 177.636 56.3573 177.636H73.2812V153.863C73.2812 153.863 72.369 125.506 101.186 125.506H149.24C149.24 125.506 176.239 125.942 176.239 99.4123V55.5461C176.239 55.5461 180.338 29 127.279 29ZM100.563 44.339C105.384 44.339 109.28 48.2351 109.28 53.0556C109.28 57.8761 105.384 61.7723 100.563 61.7723C95.7426 61.7723 91.8465 57.8761 91.8465 53.0556C91.8465 48.2351 95.7426 44.339 100.563 44.339Z"/><path fill="url(#paint1_linear_2_47)" d="M128.721 227.958C179.493 227.958 176.323 205.941 176.323 205.941L176.266 183.13H127.815V176.281H195.511C195.511 176.281 228 179.966 228 128.736C228 77.5062 199.643 79.323 199.643 79.323H182.719V103.096C182.719 103.096 183.631 131.453 154.814 131.453H106.76C106.76 131.453 79.7607 131.016 79.7607 157.546V201.412C79.7607 201.412 75.6615 227.958 128.721 227.958ZM155.437 212.619C150.616 212.619 146.72 208.723 146.72 203.903C146.72 199.082 150.616 195.186 155.437 195.186C160.257 195.186 164.154 199.082 164.154 203.903C164.154 208.723 160.257 212.619 155.437 212.619Z"/><defs><linearGradient id="paint0_linear_2_47" x1="47.22" x2="146.333" y1="46.896" y2="145.02" gradientUnits="userSpaceOnUse"><stop stop-color="#387EB8"/><stop offset="1" stop-color="#366994"/></linearGradient><linearGradient id="paint1_linear_2_47" x1="108.056" x2="214.492" y1="109.905" y2="210.522" gradientUnits="userSpaceOnUse"><stop stop-color="#FFE052"/><stop offset="1" stop-color="#FFC331"/></linearGradient></defs></svg>
        </g>
         
        <g transform="translate(1500, 300)">
          <animateTransform attributeName="transform" type="translate" values="0,0; 0,-15; 0,0" dur="4s" repeatCount="indefinite" additive="sum" begin="1.2s"/>
          <svg xmlns="http://www.w3.org/2000/svg" width="256" height="256" fill="none" viewBox="0 0 256 256"><rect width="256" height="256" fill="#242938" rx="60"/><path fill="#81CD39" d="M119.878 31.1164C124.797 28.3008 131.203 28.2883 136.117 31.1164C160.839 45.0855 185.569 59.0332 210.287 73.0108C214.937 75.6296 218.046 80.8038 217.999 86.1608V170.206C218.034 175.785 214.617 181.083 209.712 183.642C185.071 197.535 160.442 211.444 135.805 225.337C130.786 228.207 124.251 227.986 119.387 224.88C112 220.598 104.6 216.336 97.2121 212.058C95.7022 211.158 94.0004 210.442 92.9345 208.978C93.8766 207.708 95.5618 207.55 96.9309 206.995C100.014 206.014 102.847 204.44 105.679 202.913C106.396 202.423 107.27 202.611 107.957 203.049C114.274 206.671 120.536 210.399 126.874 213.986C128.226 214.767 129.595 213.73 130.751 213.086C154.931 199.419 179.141 185.805 203.318 172.134C204.214 171.703 204.709 170.752 204.636 169.771C204.653 142.046 204.64 114.317 204.645 86.5918C204.747 85.4785 204.103 84.455 203.096 83.999C178.541 70.1702 153.997 56.3205 129.446 42.4882C128.575 41.8893 127.426 41.8878 126.554 42.4837C102.002 56.3205 77.4638 70.1832 52.9124 84.011C51.9092 84.4675 51.236 85.4745 51.3554 86.5918C51.3596 114.317 51.3554 142.046 51.3554 169.775C51.2682 170.756 51.801 171.687 52.6906 172.109C59.2422 175.824 65.8024 179.513 72.3582 183.216C76.0516 185.203 80.5863 186.385 84.6555 184.862C88.2463 183.574 90.7633 179.909 90.6948 176.097C90.7288 148.534 90.6778 120.967 90.7203 93.4078C90.6309 92.1841 91.7912 91.1731 92.981 91.2885C96.1292 91.267 99.281 91.2461 102.429 91.297C103.743 91.267 104.647 92.5847 104.485 93.8174C104.472 121.555 104.519 149.293 104.464 177.03C104.472 184.423 101.435 192.467 94.5973 196.084C86.1737 200.447 75.7619 199.522 67.4399 195.338C60.2355 191.742 53.3603 187.498 46.2838 183.646C41.3661 181.101 37.966 175.782 38.0006 170.207V86.1608C37.949 80.6929 41.1825 75.4248 45.9764 72.8445C70.6133 58.9408 95.2461 45.0261 119.878 31.1164Z"/><path fill="#81CD39" d="M141.372 89.3351C152.117 88.6433 163.62 88.9255 173.289 94.2185C180.776 98.2754 184.926 106.789 185.058 115.106C184.849 116.227 183.676 116.846 182.605 116.769C179.488 116.765 176.369 116.812 173.252 116.748C171.929 116.799 171.161 115.58 170.995 114.411C170.099 110.431 167.928 106.49 164.183 104.57C158.433 101.692 151.767 101.837 145.497 101.897C140.92 102.139 135.998 102.536 132.12 105.227C129.143 107.266 128.239 111.382 129.301 114.697C130.303 117.077 133.05 117.845 135.299 118.553C148.248 121.94 161.97 121.602 174.672 126.059C179.931 127.876 185.075 131.409 186.875 136.915C189.23 144.295 188.198 153.115 182.947 159.039C178.689 163.914 172.488 166.568 166.303 168.009C158.075 169.844 149.536 169.891 141.18 169.076C133.323 168.18 125.146 166.116 119.081 160.763C113.894 156.259 111.361 149.241 111.612 142.469C111.672 141.325 112.811 140.527 113.907 140.621C117.046 140.596 120.186 140.587 123.325 140.626C124.58 140.536 125.509 141.62 125.574 142.802C126.152 146.593 127.577 150.573 130.884 152.82C137.264 156.937 145.271 156.655 152.577 156.77C158.63 156.502 165.425 156.421 170.364 152.42C172.97 150.138 173.742 146.32 173.038 143.036C172.275 140.263 169.374 138.971 166.883 138.126C154.1 134.083 140.224 135.55 127.565 130.977C122.425 129.161 117.455 125.727 115.481 120.447C112.726 112.974 113.988 103.73 119.789 98.0061C125.445 92.312 133.609 90.1192 141.372 89.3346V89.3351"/></svg>
        </g>
        
  </svg>
  